<?xml version="1.0" encoding="UTF-8"?>
<svg xmlns="http://www.w3.org/2000/svg" xmlns:xlink="http://www.w3.org/1999/xlink" width="50pt" height="50pt" viewBox="0 0 50 50" version="1.1">
<g id="surface1">
<path style=" stroke:none;fill-rule:nonzero;fill:rgb(100%,100%,100%);fill-opacity:1;" d="M 39.941406 15.664062 L 19.945312 15.664062 L 15.585938 12.242188 L 0 12.242188 L 0 43.730469 C 0 46.269531 2.0625 48.390625 4.601562 48.457031 L 39.222656 48.476562 C 41.320312 48.476562 43.167969 47.0625 43.71875 45.039062 L 49.960938 22.042969 L 39.941406 22.042969 Z M 4.957031 45.519531 L 4.65625 45.519531 C 3.722656 45.484375 2.933594 44.671875 2.933594 43.730469 L 2.933594 15.179688 L 14.570312 15.179688 L 18.933594 18.597656 L 37.003906 18.597656 L 37.003906 22.042969 L 13.101562 22.042969 L 7.222656 43.679688 C 6.9375 44.726562 6.023438 45.460938 4.957031 45.519531 Z M 46.121094 24.976562 L 40.886719 44.269531 C 40.683594 45.015625 40 45.539062 39.222656 45.539062 L 9.640625 45.523438 C 9.8125 45.1875 9.953125 44.828125 10.058594 44.449219 L 15.347656 24.976562 Z M 46.121094 24.976562 "/>
<path style=" stroke:none;fill-rule:nonzero;fill:rgb(100%,100%,100%);fill-opacity:1;" d="M 36.070312 4.460938 C 39.347656 4.460938 42.117188 6.667969 42.972656 9.675781 L 41.234375 8.324219 L 39.433594 10.640625 L 44.714844 14.746094 L 50 10.640625 L 48.199219 8.324219 L 46.050781 9.992188 C 45.261719 5.195312 41.089844 1.523438 36.070312 1.523438 C 30.496094 1.523438 25.960938 6.0625 25.960938 11.636719 L 28.894531 11.636719 C 28.894531 7.679688 32.113281 4.460938 36.070312 4.460938 Z M 36.070312 4.460938 "/>
<path style=" stroke:none;fill-rule:nonzero;fill:rgb(100%,100%,100%);fill-opacity:1;" d="M 18.347656 42.582031 L 18.347656 39.644531 L 36.070312 39.664062 L 36.066406 42.597656 Z M 18.347656 42.582031 "/>
</g>
</svg>
