<?xml version="1.0" encoding="UTF-8"?>
<svg xmlns="http://www.w3.org/2000/svg" xmlns:xlink="http://www.w3.org/1999/xlink" width="50pt" height="50pt" viewBox="0 0 50 50" version="1.1">
<g id="surface1">
<path style=" stroke:none;fill-rule:nonzero;fill:rgb(100%,100%,100%);fill-opacity:1;" d="M 25 17.847656 C 23.757812 17.847656 22.875 18.375 22.875 19.144531 L 22.875 29.660156 C 22.875 30.324219 23.757812 30.984375 25 30.984375 C 26.1875 30.984375 27.152344 30.324219 27.152344 29.660156 L 27.152344 19.144531 C 27.152344 18.375 26.1875 17.847656 25 17.847656 Z M 25 17.847656 "/>
<path style=" stroke:none;fill-rule:nonzero;fill:rgb(100%,100%,100%);fill-opacity:1;" d="M 25 11.363281 C 23.730469 11.363281 22.738281 12.273438 22.738281 13.324219 C 22.738281 14.371094 23.730469 15.308594 25 15.308594 C 26.242188 15.308594 27.234375 14.371094 27.234375 13.324219 C 27.234375 12.273438 26.242188 11.363281 25 11.363281 Z M 25 11.363281 "/>
<path style=" stroke:none;fill-rule:nonzero;fill:rgb(100%,100%,100%);fill-opacity:1;" d="M 25 0 C 13.125 0 3.515625 9.605469 3.515625 21.472656 C 3.515625 31.164062 9.894531 39.207031 18.496094 41.941406 L 23.382812 49.144531 C 23.746094 49.679688 24.351562 50 25 50 C 25.648438 50 26.253906 49.679688 26.617188 49.144531 L 31.503906 41.941406 C 40.109375 39.207031 46.484375 31.160156 46.484375 21.472656 C 46.484375 9.597656 36.867188 0 25 0 Z M 29.75 38.386719 C 29.304688 38.511719 28.917969 38.789062 28.660156 39.171875 L 25 44.566406 L 21.339844 39.171875 C 21.082031 38.789062 20.695312 38.511719 20.25 38.390625 C 12.925781 36.339844 7.421875 29.609375 7.421875 21.472656 C 7.421875 11.785156 15.308594 3.90625 25 3.90625 C 34.691406 3.90625 42.578125 11.785156 42.578125 21.472656 C 42.578125 29.617188 37.0625 36.34375 29.75 38.386719 Z M 29.75 38.386719 "/>
</g>
</svg>
