<?xml version="1.0" encoding="UTF-8"?>
<svg xmlns="http://www.w3.org/2000/svg" xmlns:xlink="http://www.w3.org/1999/xlink" width="50pt" height="50pt" viewBox="0 0 50 50" version="1.1">
<g id="surface1">
<path style=" stroke:none;fill-rule:nonzero;fill:rgb(100%,100%,100%);fill-opacity:1;" d="M 42.855469 17.855469 L 41.070312 17.855469 L 41.070312 16.070312 C 41.0625 7.199219 33.871094 0.0117188 25 0 C 16.128906 0.0117188 8.9375 7.199219 8.929688 16.070312 L 8.929688 17.855469 L 7.144531 17.855469 C 6.15625 17.855469 5.355469 18.65625 5.355469 19.644531 L 5.355469 48.214844 C 5.355469 49.199219 6.15625 50 7.144531 50 L 42.855469 50 C 43.84375 50 44.644531 49.199219 44.644531 48.214844 L 44.644531 19.644531 C 44.644531 18.65625 43.84375 17.855469 42.855469 17.855469 Z M 12.5 16.070312 C 12.5 9.167969 18.097656 3.570312 25 3.570312 C 31.902344 3.570312 37.5 9.167969 37.5 16.070312 L 37.5 17.855469 L 12.5 17.855469 Z M 41.070312 46.429688 L 8.929688 46.429688 L 8.929688 21.429688 L 41.070312 21.429688 Z M 41.070312 46.429688 "/>
<path style=" stroke:none;fill-rule:nonzero;fill:rgb(100%,100%,100%);fill-opacity:1;" d="M 30.050781 30.355469 C 29.296875 28.210938 27.269531 26.78125 25 26.785156 C 22.046875 26.78125 19.652344 29.167969 19.644531 32.121094 C 19.640625 34.390625 21.074219 36.417969 23.214844 37.171875 L 23.214844 41.070312 C 23.214844 42.058594 24.015625 42.855469 25 42.855469 C 25.984375 42.855469 26.785156 42.058594 26.785156 41.070312 L 26.785156 37.171875 C 29.570312 36.191406 31.03125 33.140625 30.050781 30.355469 Z M 25 33.929688 C 24.015625 33.929688 23.214844 33.128906 23.214844 32.144531 C 23.214844 31.15625 24.015625 30.355469 25 30.355469 C 25.984375 30.355469 26.785156 31.15625 26.785156 32.144531 C 26.785156 33.128906 25.984375 33.929688 25 33.929688 Z M 25 33.929688 "/>
</g>
</svg>
