<?xml version="1.0" encoding="UTF-8"?>
<svg xmlns="http://www.w3.org/2000/svg" xmlns:xlink="http://www.w3.org/1999/xlink" width="50pt" height="50pt" viewBox="0 0 50 50" version="1.1">
<g id="surface1">
<path style=" stroke:none;fill-rule:nonzero;fill:rgb(100%,100%,100%);fill-opacity:1;" d="M 42.851562 17.867188 L 12.503906 17.867188 L 12.503906 16.082031 C 12.496094 9.179688 18.089844 3.578125 24.988281 3.574219 C 30.089844 3.570312 34.679688 6.664062 36.585938 11.394531 C 36.964844 12.304688 38.007812 12.738281 38.917969 12.363281 C 39.820312 11.988281 40.257812 10.960938 39.898438 10.054688 C 36.574219 1.824219 27.210938 -2.148438 18.984375 1.171875 C 12.90625 3.628906 8.929688 9.527344 8.933594 16.082031 L 8.933594 17.867188 L 7.148438 17.867188 C 6.160156 17.867188 5.363281 18.664062 5.363281 19.652344 L 5.363281 48.214844 C 5.363281 49.199219 6.160156 50 7.148438 50 L 42.851562 50 C 43.839844 50 44.636719 49.199219 44.636719 48.214844 L 44.636719 19.652344 C 44.636719 18.664062 43.839844 17.867188 42.851562 17.867188 Z M 41.066406 46.429688 L 8.933594 46.429688 L 8.933594 21.4375 L 41.066406 21.4375 Z M 41.066406 46.429688 "/>
<path style=" stroke:none;fill-rule:nonzero;fill:rgb(100%,100%,100%);fill-opacity:1;" d="M 30.050781 30.339844 C 29.0625 27.550781 26.003906 26.089844 23.214844 27.078125 C 20.425781 28.0625 18.964844 31.121094 19.949219 33.910156 C 20.488281 35.4375 21.691406 36.636719 23.214844 37.175781 L 23.214844 41.074219 C 23.214844 42.058594 24.015625 42.859375 25 42.859375 C 25.984375 42.859375 26.785156 42.058594 26.785156 41.074219 L 26.785156 37.175781 C 29.574219 36.1875 31.035156 33.128906 30.050781 30.339844 Z M 25 33.933594 C 24.015625 33.933594 23.214844 33.132812 23.214844 32.148438 C 23.214844 31.160156 24.015625 30.363281 25 30.363281 C 25.984375 30.363281 26.785156 31.160156 26.785156 32.148438 C 26.785156 33.132812 25.984375 33.933594 25 33.933594 Z M 25 33.933594 "/>
</g>
</svg>
